<svg xmlns="http://www.w3.org/2000/svg" viewBox="0 0 26.67 26"><defs><style>.cls-1{fill:#ff4343;}</style></defs><title>warn</title><g id="图层_2" data-name="图层 2"><g id="图层_1-2" data-name="图层 1"><g id="_编组_" data-name="&lt;编组&gt;"><path class="cls-1" d="M13.34,26A13.19,13.19,0,0,1,0,13,13.19,13.19,0,0,1,13.34,0,13.19,13.19,0,0,1,26.67,13,13.19,13.19,0,0,1,13.34,26Zm0-24A11.18,11.18,0,0,0,2,13,11.18,11.18,0,0,0,13.34,24,11.18,11.18,0,0,0,24.67,13,11.18,11.18,0,0,0,13.34,2Z"/></g><g id="_编组_2" data-name="&lt;编组&gt;"><path class="cls-1" d="M13.34,19a1,1,0,1,0,1,1,1,1,0,0,0-1-1Z"/></g><path class="cls-1" d="M13.34,16.81a1,1,0,0,1-1-1V6a1,1,0,0,1,2,0v9.78A1,1,0,0,1,13.34,16.81Z"/></g></g></svg>