<?xml version="1.0" standalone="no"?><!DOCTYPE svg PUBLIC "-//W3C//DTD SVG 1.1//EN" "http://www.w3.org/Graphics/SVG/1.1/DTD/svg11.dtd"><svg t="1489849711153" class="icon" style="" viewBox="0 0 1024 1024" version="1.1" xmlns="http://www.w3.org/2000/svg" p-id="1434" xmlns:xlink="http://www.w3.org/1999/xlink" width="200" height="200"><defs><style type="text/css"></style></defs><path d="M887.311071 16.445242l-60.412326 0 0 20.137442 60.412326 0L887.311071 16.445242 887.311071 16.445242zM766.48642 16.445242l-60.412326 0 0 20.137442 60.412326 0L766.48642 16.445242 766.48642 16.445242zM645.661768 16.445242l-60.412326 0 0 20.137442 60.412326 0L645.661768 16.445242 645.661768 16.445242zM524.837116 16.445242l-60.412326 0 0 20.137442 60.412326 0L524.837116 16.445242 524.837116 16.445242zM404.012464 16.445242l-60.412326 0 0 20.137442 60.412326 0L404.012464 16.445242 404.012464 16.445242zM283.187812 16.445242l-60.412326 0 0 20.137442 60.412326 0L283.187812 16.445242 283.187812 16.445242zM162.36316 16.445242l-60.412326 0 0 20.137442 60.412326 0L162.36316 16.445242 162.36316 16.445242zM41.538508 16.445242 0.581972 16.445242l0 20.137442 40.957543 0L41.539515 16.445242 41.538508 16.445242zM20.719414 96.312351l-20.137442 0 0 60.412326 20.137442 0L20.719414 96.312351 20.719414 96.312351zM20.719414 217.137002l-20.137442 0 0 60.412326 20.137442 0L20.719414 217.137002 20.719414 217.137002zM20.719414 337.961654l-20.137442 0 0 60.412326 20.137442 0L20.719414 337.961654 20.719414 337.961654zM20.719414 458.786306l-20.137442 0 0 60.412326 20.137442 0L20.719414 458.786306 20.719414 458.786306zM20.719414 579.610958l-20.137442 0 0 60.412326 20.137442 0L20.719414 579.610958 20.719414 579.610958zM20.719414 700.43561l-20.137442 0 0 60.412326 20.137442 0L20.719414 700.43561 20.719414 700.43561zM20.719414 821.260262l-20.137442 0 0 60.412326 20.137442 0L20.719414 821.260262 20.719414 821.260262zM20.719414 942.084914l-20.137442 0 0 60.412326 20.137442 0L20.719414 942.084914 20.719414 942.084914zM99.903863 1003.862558l-60.412326 0 0 20.137442 60.412326 0L99.903863 1003.862558 99.903863 1003.862558zM220.728515 1003.862558l-60.412326 0 0 20.137442 60.412326 0L220.728515 1003.862558 220.728515 1003.862558zM341.553167 1003.862558l-60.412326 0 0 20.137442 60.412326 0L341.553167 1003.862558 341.553167 1003.862558zM462.377819 1003.862558l-60.412326 0 0 20.137442 60.412326 0L462.377819 1003.862558 462.377819 1003.862558zM583.202471 1003.862558l-60.412326 0 0 20.137442 60.412326 0L583.202471 1003.862558 583.202471 1003.862558zM704.027123 1003.862558l-60.412326 0 0 20.137442 60.412326 0L704.027123 1003.862558 704.027123 1003.862558zM824.851774 1003.862558l-60.412326 0 0 20.137442 60.412326 0L824.851774 1003.862558 824.851774 1003.862558zM945.676426 1003.862558l-60.412326 0 0 20.137442 60.412326 0L945.676426 1003.862558 945.676426 1003.862558zM1008.135723 965.634645l-20.137442 0 0 58.365355 18.090471 0 0 0-18.090471 0 18.090471 0 0 0 2.046971 0L1008.135723 965.634645 1008.135723 965.634645zM1008.135723 844.809993l-20.137442 0 0 60.412326 20.137442 0L1008.135723 844.809993 1008.135723 844.809993zM1008.135723 723.985341l-20.137442 0 0 60.412326 20.137442 0L1008.135723 723.985341 1008.135723 723.985341zM1008.135723 603.16069l-20.137442 0 0 60.412326 20.137442 0L1008.135723 603.16069 1008.135723 603.16069zM1008.135723 482.336038l-20.137442 0 0 60.412326 20.137442 0L1008.135723 482.336038 1008.135723 482.336038zM1008.135723 361.511386l-20.137442 0 0 60.412326 20.137442 0L1008.135723 361.511386 1008.135723 361.511386zM1008.135723 240.686734l-20.137442 0 0 60.412326 20.137442 0L1008.135723 240.686734 1008.135723 240.686734zM1008.135723 119.862082l-20.137442 0 0 60.412326 20.137442 0L1008.135723 119.862082 1008.135723 119.862082zM1008.135723 16.445242l-60.412326 0 0 20.137442 40.274884 0 0 22.867072 20.137442 0L1008.135723 16.445242 1008.135723 16.445242z" p-id="1435"></path><path d="M694.627972 507.536033 517.023788 507.536033 517.023788 329.932856 491.651618 329.932856 491.651618 507.536033 314.047435 507.536033 314.047435 532.909209 491.651618 532.909209 491.651618 710.512386 517.023788 710.512386 517.023788 532.909209 694.627972 532.909209Z" p-id="1436"></path></svg>